<?xml version="1.0" standalone="no"?>
<!DOCTYPE svg PUBLIC "-//W3C//DTD SVG 20010904//EN"
 "http://www.w3.org/TR/2001/REC-SVG-20010904/DTD/svg10.dtd">
<svg version="1.0" xmlns="http://www.w3.org/2000/svg"
 width="540.000000pt" height="360.000000pt" viewBox="0 0 540.000000 360.000000"
 preserveAspectRatio="xMidYMid meet">
<metadata>
Created by potrace 1.16, written by Peter Selinger 2001-2019
</metadata>
<g transform="translate(0.000000,360.000000) scale(0.100000,-0.100000)"
fill="#000000" stroke="none">
<path d="M3395 2344 c-47 -25 -55 -42 -53 -108 1 -43 3 -50 5 -23 l4 37 79 0
c77 0 80 -1 102 -30 12 -16 27 -30 34 -30 16 0 26 73 14 104 -22 58 -120 84
-185 50z"/>
<path d="M1897 1783 c-4 -3 -7 -12 -7 -20 0 -10 50 -13 258 -13 142 0 262 3
265 7 4 3 2 12 -4 20 -9 10 -64 13 -259 13 -135 0 -250 -3 -253 -7z"/>
<path d="M3775 1464 c-33 -7 -106 -16 -162 -20 -99 -7 -103 -8 -103 -31 0 -20
-5 -23 -42 -23 -29 0 -49 -7 -67 -22 l-26 -23 20 24 20 24 -115 -7 c-150 -10
-165 -13 -199 -48 -34 -35 -34 -34 -52 -343 -6 -104 -11 -197 -12 -205 -2 -12
10 -15 52 -15 l55 0 36 210 c43 245 47 262 49 219 2 -45 28 -64 90 -64 32 0
53 -5 56 -12 2 -7 8 -92 12 -188 l8 -175 26 -3 c15 -2 42 3 61 11 l35 15 6
183 c4 101 10 200 15 219 l8 35 129 33 c99 25 137 40 159 60 35 33 56 80 56
127 0 32 -2 35 -27 34 -16 -1 -55 -7 -88 -15z"/>
<path d="M1285 1361 c-181 -38 -183 -39 -200 -65 -15 -22 -13 -42 15 -242 35
-250 50 -311 90 -368 38 -56 62 -75 158 -130 116 -66 130 -67 227 -16 44 23
95 53 113 67 33 25 63 23 41 -3 -7 -8 -7 -14 -1 -14 14 0 23 28 11 35 -5 4 -1
18 11 35 53 74 68 130 101 377 l33 242 -23 25 c-14 15 -39 26 -67 31 -24 3
-46 10 -49 15 -3 5 -11 7 -18 4 -7 -2 -57 5 -111 16 -125 25 -171 24 -331 -9z
m368 -16 c97 -19 186 -40 196 -46 21 -14 22 -4 -20 -293 -30 -210 -41 -253
-79 -307 -12 -16 -18 -34 -14 -40 4 -8 3 -9 -4 -5 -7 4 -12 2 -12 -4 0 -6 -4
-9 -9 -5 -6 3 -13 -1 -18 -8 -4 -7 -49 -37 -100 -66 -74 -42 -100 -51 -132
-50 -22 2 -38 6 -36 9 5 7 -65 45 -77 42 -5 -1 -8 3 -8 9 0 5 -4 7 -10 4 -5
-3 -10 -2 -10 2 0 13 -56 43 -65 35 -5 -4 -5 -2 -2 4 3 6 -7 23 -22 38 -55 53
-77 123 -111 368 -17 125 -29 236 -25 247 3 10 13 22 23 26 15 6 319 71 347
74 6 1 90 -15 188 -34z"/>
<path d="M3015 643 c-2 -7 2 -13 10 -13 7 0 17 -4 20 -10 4 -6 -5 -8 -22 -4
-23 5 -31 0 -46 -24 -9 -17 -39 -49 -66 -71 l-49 -41 -340 0 c-188 0 -343 -3
-345 -7 -3 -5 148 -7 335 -7 323 2 341 1 345 -16 6 -23 52 -34 98 -26 18 4 68
29 110 57 l76 49 -7 58 c-3 31 -8 59 -10 61 -1 1 -25 4 -53 5 -33 1 -52 -3
-56 -11z"/>
<path d="M3401 597 c-17 -17 -13 -24 17 -32 15 -4 21 -10 14 -12 -6 -3 -10 -8
-7 -12 2 -5 -8 -6 -23 -3 l-27 6 25 7 c23 6 23 7 3 8 -22 1 -155 -127 -161
-156 -5 -21 16 -33 60 -33 48 0 80 13 156 63 67 44 70 52 56 139 -6 34 -8 36
-30 28 -14 -6 -34 -6 -48 0 -15 5 -27 5 -35 -3z"/>
</g>
</svg>
