<svg width="1280.713" height="93.702" viewBox="0 0 1280.713 93.702" xmlns="http://www.w3.org/2000/svg"><g id="svgGroup" stroke-linecap="round" fill-rule="evenodd" font-size="9pt" stroke="#14a9ff" stroke-width="0.25mm" fill="#00a6ff" style="stroke:#14a9ff;stroke-width:0.25mm;fill:#00a6ff"><path d="M 437.256 66.505 L 437.256 70.801 L 412.012 70.801 L 412.012 66.505 L 417.334 66.114 A 2.976 2.976 0 0 0 418.04 65.968 A 2.038 2.038 0 0 0 418.97 65.333 A 2.761 2.761 0 0 0 419.323 64.791 A 1.977 1.977 0 0 0 419.531 63.917 L 419.531 8.79 L 396.533 70.801 L 391.553 70.801 L 369.336 9.717 L 369.336 63.917 A 1.997 1.997 0 0 0 369.578 64.857 A 2.823 2.823 0 0 0 369.897 65.333 A 2.056 2.056 0 0 0 370.898 65.991 A 3.042 3.042 0 0 0 371.533 66.114 L 377.246 66.505 L 377.246 70.801 L 355.615 70.801 L 355.615 66.505 L 361.328 66.114 Q 362.228 66.032 362.733 65.54 A 1.774 1.774 0 0 0 362.915 65.333 A 2.752 2.752 0 0 0 363.265 64.726 A 2.118 2.118 0 0 0 363.428 63.917 L 363.428 10.596 A 2.221 2.221 0 0 0 363.202 9.634 A 3.051 3.051 0 0 0 362.915 9.156 A 1.751 1.751 0 0 0 361.92 8.487 A 2.734 2.734 0 0 0 361.328 8.399 L 355.615 8.008 L 355.615 3.712 L 378.027 3.712 L 378.027 6.397 L 396.143 55.518 L 414.258 6.69 L 414.258 3.712 L 437.256 3.712 L 437.256 8.008 L 431.836 8.399 A 2.718 2.718 0 0 0 431.144 8.515 A 1.901 1.901 0 0 0 430.2 9.156 Q 429.639 9.864 429.639 10.596 L 429.639 63.917 A 1.997 1.997 0 0 0 429.88 64.857 A 2.823 2.823 0 0 0 430.2 65.333 A 2.056 2.056 0 0 0 431.2 65.991 A 3.042 3.042 0 0 0 431.836 66.114 L 437.256 66.505 Z M 783.105 66.895 L 783.105 70.801 L 760.693 70.801 L 760.693 66.895 L 764.893 66.602 A 3.151 3.151 0 0 0 765.755 66.431 Q 766.712 66.082 766.929 65.061 A 3.16 3.16 0 0 0 766.992 64.405 L 766.992 38.917 A 18.189 18.189 0 0 0 766.764 35.947 Q 766.493 34.311 765.9 32.985 A 9.233 9.233 0 0 0 765.063 31.495 Q 763.516 29.261 759.972 28.82 A 15.13 15.13 0 0 0 758.105 28.712 A 18.363 18.363 0 0 0 755.499 28.907 Q 754.138 29.102 752.661 29.493 A 27.377 27.377 0 0 0 749.627 30.479 A 21.461 21.461 0 0 0 747.412 31.495 L 747.412 64.405 A 2.907 2.907 0 0 0 747.531 65.274 Q 747.826 66.215 748.85 66.495 A 3.413 3.413 0 0 0 749.512 66.602 L 753.711 66.895 L 753.711 70.801 L 731.787 70.801 L 731.787 66.895 L 735.986 66.602 A 3.151 3.151 0 0 0 736.849 66.431 Q 737.806 66.082 738.022 65.061 A 3.16 3.16 0 0 0 738.086 64.405 L 738.086 38.282 A 14.722 14.722 0 0 0 737.805 35.323 Q 737.336 33.037 736.084 31.373 A 6.117 6.117 0 0 0 733.185 29.301 Q 731.549 28.712 729.297 28.712 A 18.731 18.731 0 0 0 725.381 29.141 A 22.942 22.942 0 0 0 723.389 29.664 Q 720.453 30.572 718.762 31.503 A 11.536 11.536 0 0 0 718.604 31.592 L 718.604 64.405 A 2.907 2.907 0 0 0 718.723 65.274 Q 719.017 66.215 720.041 66.495 A 3.413 3.413 0 0 0 720.703 66.602 L 724.902 66.895 L 724.902 70.801 L 702.295 70.801 L 702.295 66.895 L 707.178 66.602 A 3.151 3.151 0 0 0 708.04 66.431 Q 708.997 66.082 709.214 65.061 A 3.16 3.16 0 0 0 709.277 64.405 L 709.277 29.688 L 702.393 29.688 L 702.393 26.417 L 714.502 22.608 L 718.604 22.608 L 718.604 27.589 A 63.627 63.627 0 0 1 720.99 26.209 A 83.193 83.193 0 0 1 723.657 24.805 Q 726.465 23.389 729.395 22.388 A 19.669 19.669 0 0 1 732.239 21.638 A 14.969 14.969 0 0 1 734.912 21.387 A 13.848 13.848 0 0 1 737.938 21.7 Q 740.265 22.22 741.943 23.609 Q 744.534 25.752 745.807 28.146 A 11.384 11.384 0 0 1 745.898 28.321 A 54.249 54.249 0 0 1 747.551 27.317 Q 748.302 26.878 749.159 26.402 A 114.841 114.841 0 0 1 750.977 25.416 A 49.595 49.595 0 0 1 757.349 22.584 A 22.839 22.839 0 0 1 759.918 21.809 Q 761.252 21.496 762.459 21.415 A 12.327 12.327 0 0 1 763.281 21.387 A 18.456 18.456 0 0 1 766.334 21.623 Q 767.976 21.899 769.285 22.498 A 8.484 8.484 0 0 1 771.338 23.804 Q 774.121 26.221 775.146 29.761 Q 776.172 33.301 776.172 36.719 L 776.172 64.405 A 2.301 2.301 0 0 0 776.281 65.127 A 1.911 1.911 0 0 0 776.782 65.919 A 2.485 2.485 0 0 0 778.271 66.602 L 783.105 66.895 Z M 1280.713 66.895 L 1280.713 70.801 L 1258.301 70.801 L 1258.301 66.895 L 1262.5 66.602 A 3.151 3.151 0 0 0 1263.363 66.431 Q 1264.319 66.082 1264.536 65.061 A 3.16 3.16 0 0 0 1264.6 64.405 L 1264.6 38.917 A 18.189 18.189 0 0 0 1264.372 35.947 Q 1264.101 34.311 1263.507 32.985 A 9.233 9.233 0 0 0 1262.671 31.495 Q 1261.123 29.261 1257.579 28.82 A 15.13 15.13 0 0 0 1255.713 28.712 A 18.363 18.363 0 0 0 1253.107 28.907 Q 1251.746 29.102 1250.269 29.493 A 27.377 27.377 0 0 0 1247.235 30.479 A 21.461 21.461 0 0 0 1245.02 31.495 L 1245.02 64.405 A 2.907 2.907 0 0 0 1245.139 65.274 Q 1245.433 66.215 1246.457 66.495 A 3.413 3.413 0 0 0 1247.119 66.602 L 1251.318 66.895 L 1251.318 70.801 L 1229.395 70.801 L 1229.395 66.895 L 1233.594 66.602 A 3.151 3.151 0 0 0 1234.456 66.431 Q 1235.413 66.082 1235.63 65.061 A 3.16 3.16 0 0 0 1235.693 64.405 L 1235.693 38.282 A 14.722 14.722 0 0 0 1235.413 35.323 Q 1234.944 33.037 1233.691 31.373 A 6.117 6.117 0 0 0 1230.792 29.301 Q 1229.157 28.712 1226.904 28.712 A 18.731 18.731 0 0 0 1222.989 29.141 A 22.942 22.942 0 0 0 1220.996 29.664 Q 1218.06 30.572 1216.37 31.503 A 11.536 11.536 0 0 0 1216.211 31.592 L 1216.211 64.405 A 2.907 2.907 0 0 0 1216.33 65.274 Q 1216.625 66.215 1217.648 66.495 A 3.413 3.413 0 0 0 1218.311 66.602 L 1222.51 66.895 L 1222.51 70.801 L 1199.902 70.801 L 1199.902 66.895 L 1204.785 66.602 A 3.151 3.151 0 0 0 1205.648 66.431 Q 1206.604 66.082 1206.821 65.061 A 3.16 3.16 0 0 0 1206.885 64.405 L 1206.885 29.688 L 1200 29.688 L 1200 26.417 L 1212.109 22.608 L 1216.211 22.608 L 1216.211 27.589 A 63.627 63.627 0 0 1 1218.597 26.209 A 83.193 83.193 0 0 1 1221.265 24.805 Q 1224.072 23.389 1227.002 22.388 A 19.669 19.669 0 0 1 1229.846 21.638 A 14.969 14.969 0 0 1 1232.52 21.387 A 13.848 13.848 0 0 1 1235.545 21.7 Q 1237.872 22.22 1239.551 23.609 Q 1242.142 25.752 1243.415 28.146 A 11.384 11.384 0 0 1 1243.506 28.321 A 54.249 54.249 0 0 1 1245.158 27.317 Q 1245.91 26.878 1246.766 26.402 A 114.841 114.841 0 0 1 1248.584 25.416 A 49.595 49.595 0 0 1 1254.956 22.584 A 22.839 22.839 0 0 1 1257.525 21.809 Q 1258.86 21.496 1260.066 21.415 A 12.327 12.327 0 0 1 1260.889 21.387 A 18.456 18.456 0 0 1 1263.941 21.623 Q 1265.583 21.899 1266.893 22.498 A 8.484 8.484 0 0 1 1268.945 23.804 Q 1271.729 26.221 1272.754 29.761 Q 1273.779 33.301 1273.779 36.719 L 1273.779 64.405 A 2.301 2.301 0 0 0 1273.888 65.127 A 1.911 1.911 0 0 0 1274.39 65.919 A 2.485 2.485 0 0 0 1275.879 66.602 L 1280.713 66.895 Z M 973.926 68.702 L 973.926 50.977 L 980.225 50.977 L 981.543 62.305 A 2.061 2.061 0 0 0 981.695 62.798 Q 981.859 63.169 982.178 63.575 A 5.27 5.27 0 0 0 982.509 63.959 Q 982.867 64.335 983.203 64.503 A 0.897 0.897 0 0 1 983.301 64.532 Q 983.743 64.682 985.773 65.552 A 290.187 290.187 0 0 1 986.06 65.674 A 11.476 11.476 0 0 0 988.095 66.314 Q 990.198 66.782 993.121 66.797 A 37.819 37.819 0 0 0 993.311 66.798 A 21.536 21.536 0 0 0 997.965 66.321 A 15.069 15.069 0 0 0 1003.857 63.673 A 10.03 10.03 0 0 0 1007.943 56.335 A 13.79 13.79 0 0 0 1008.008 54.981 A 9.168 9.168 0 0 0 1007.46 51.774 A 8.372 8.372 0 0 0 1006.323 49.683 A 15.864 15.864 0 0 0 1003.534 46.804 A 19.496 19.496 0 0 0 1001.953 45.655 Q 999.268 43.897 996.216 42.457 A 841.242 841.242 0 0 1 993.243 41.047 A 717.778 717.778 0 0 1 990.43 39.698 Q 986.328 37.745 982.813 35.523 A 18.761 18.761 0 0 1 978.002 31.22 A 17.712 17.712 0 0 1 977.148 30.03 Q 975.19 27.047 975.017 22.563 A 22.906 22.906 0 0 1 975 21.68 Q 975 15.723 978.027 11.329 A 19.652 19.652 0 0 1 985.241 5.029 A 23.671 23.671 0 0 1 986.279 4.517 Q 991.504 2.1 998.096 2.1 Q 1003.042 2.1 1006.912 2.991 A 27.662 27.662 0 0 1 1007.568 3.15 A 148.82 148.82 0 0 1 1011.21 4.129 Q 1012.914 4.612 1014.418 5.089 A 87.198 87.198 0 0 1 1014.844 5.225 L 1015.723 5.518 L 1015.723 21.094 L 1010.01 21.094 L 1008.496 11.524 A 1.651 1.651 0 0 0 1008.368 11.071 A 1.232 1.232 0 0 0 1007.886 10.523 A 5.258 5.258 0 0 1 1006.934 9.766 A 2.557 2.557 0 0 0 1006.73 9.632 Q 1006.208 9.317 1004.77 8.619 A 99.335 99.335 0 0 0 1004.517 8.497 A 7.611 7.611 0 0 0 1003.054 7.987 Q 1001.597 7.624 999.497 7.543 A 32.677 32.677 0 0 0 998.242 7.52 A 17.393 17.393 0 0 0 994.293 7.943 Q 991.004 8.709 988.77 10.865 A 11.155 11.155 0 0 0 985.306 18.972 A 14.643 14.643 0 0 0 985.303 19.288 A 9.459 9.459 0 0 0 988.301 26.373 A 11.999 11.999 0 0 0 988.892 26.905 A 23.923 23.923 0 0 0 991.952 29.069 Q 994.955 30.883 999.219 32.52 Q 1008.301 35.938 1013.257 40.211 A 13.998 13.998 0 0 1 1018.024 49.189 A 20.204 20.204 0 0 1 1018.213 52.003 A 18.913 18.913 0 0 1 1015.987 60.837 A 22.676 22.676 0 0 1 1015.503 61.719 A 18.01 18.01 0 0 1 1010.967 66.864 A 24.888 24.888 0 0 1 1006.958 69.41 Q 1002.449 71.73 995.798 72.258 A 51.902 51.902 0 0 1 991.699 72.413 A 52.558 52.558 0 0 1 987.299 72.238 Q 984.592 72.01 982.324 71.485 Q 978.32 70.557 976.123 69.63 L 973.926 68.702 Z M 1074.121 22.608 L 1074.121 26.514 L 1068.896 27.1 L 1049.707 73.878 A 55.372 55.372 0 0 1 1049.345 74.77 Q 1048.927 75.78 1048.32 77.161 A 232.713 232.713 0 0 1 1047.729 78.492 A 62.576 62.576 0 0 1 1045.547 82.884 A 72.95 72.95 0 0 1 1044.556 84.644 A 29.953 29.953 0 0 1 1042.719 87.449 A 21.98 21.98 0 0 1 1040.625 89.893 A 13.993 13.993 0 0 1 1037.447 92.297 A 12.968 12.968 0 0 1 1036.646 92.701 A 11.066 11.066 0 0 1 1032.171 93.7 A 12.752 12.752 0 0 1 1031.934 93.702 A 11.771 11.771 0 0 1 1029.87 93.533 Q 1028.728 93.329 1027.824 92.88 A 5.681 5.681 0 0 1 1026.489 91.968 A 6.401 6.401 0 0 1 1025.316 90.551 A 4.911 4.911 0 0 1 1024.609 87.989 Q 1024.609 84.74 1027.695 82.099 A 13.585 13.585 0 0 1 1027.832 81.983 L 1037.207 86.28 A 16.481 16.481 0 0 0 1038.556 84.738 Q 1039.172 83.945 1039.788 82.991 A 32.769 32.769 0 0 0 1040.527 81.788 A 58.386 58.386 0 0 0 1043.53 75.928 A 83.051 83.051 0 0 0 1044.452 73.775 Q 1044.8 72.926 1045.088 72.158 A 41.063 41.063 0 0 0 1045.605 70.704 L 1028.613 27.1 L 1023.096 26.514 L 1023.096 22.608 L 1045.215 22.608 L 1045.215 26.514 L 1040.43 26.807 A 2.636 2.636 0 0 0 1039.782 26.941 Q 1038.818 27.286 1038.818 28.419 A 2.514 2.514 0 0 0 1038.826 28.623 Q 1038.843 28.826 1038.895 28.958 A 0.605 0.605 0 0 0 1038.916 29.005 L 1050.537 58.497 L 1062.402 29.005 A 1.399 1.399 0 0 0 1062.549 28.37 A 2.055 2.055 0 0 0 1062.463 27.749 Q 1062.188 26.882 1061.035 26.807 L 1056.299 26.514 L 1056.299 22.608 L 1074.121 22.608 Z M 545.898 66.895 L 545.898 70.801 L 523.828 70.801 L 523.828 66.895 L 528.027 66.602 A 2.485 2.485 0 0 0 529.517 65.919 A 1.96 1.96 0 0 0 530.12 64.604 A 2.659 2.659 0 0 0 530.127 64.405 L 530.127 38.38 A 16.321 16.321 0 0 0 529.912 35.641 Q 529.662 34.171 529.118 33.004 A 7.451 7.451 0 0 0 527.93 31.177 A 6.438 6.438 0 0 0 525.441 29.497 Q 523.457 28.712 520.508 28.712 A 20.357 20.357 0 0 0 514.868 29.517 A 31.119 31.119 0 0 0 509.521 31.592 L 509.521 64.405 A 2.907 2.907 0 0 0 509.641 65.274 Q 509.935 66.215 510.959 66.495 A 3.413 3.413 0 0 0 511.621 66.602 L 515.82 66.895 L 515.82 70.801 L 493.213 70.801 L 493.213 66.895 L 498.096 66.602 A 3.151 3.151 0 0 0 498.958 66.431 Q 499.915 66.082 500.132 65.061 A 3.16 3.16 0 0 0 500.195 64.405 L 500.195 29.688 L 493.213 29.688 L 493.213 26.417 L 505.42 22.608 L 509.521 22.608 L 509.521 27.589 Q 513.721 25.196 518.14 23.292 A 27.859 27.859 0 0 1 521.32 22.131 Q 523.859 21.387 526.025 21.387 Q 532.568 21.387 535.986 25.465 Q 538.87 28.905 539.321 34.622 A 27.953 27.953 0 0 1 539.404 36.817 L 539.404 64.405 A 2.301 2.301 0 0 0 539.513 65.127 A 1.911 1.911 0 0 0 540.015 65.919 A 2.485 2.485 0 0 0 541.504 66.602 L 545.898 66.895 Z M 889.014 66.895 L 889.014 70.801 L 866.943 70.801 L 866.943 66.895 L 871.143 66.602 A 2.485 2.485 0 0 0 872.632 65.919 A 1.96 1.96 0 0 0 873.235 64.604 A 2.659 2.659 0 0 0 873.242 64.405 L 873.242 38.38 A 16.321 16.321 0 0 0 873.028 35.641 Q 872.777 34.171 872.233 33.004 A 7.451 7.451 0 0 0 871.045 31.177 A 6.438 6.438 0 0 0 868.557 29.497 Q 866.572 28.712 863.623 28.712 A 20.357 20.357 0 0 0 857.983 29.517 A 31.119 31.119 0 0 0 852.637 31.592 L 852.637 64.405 A 2.907 2.907 0 0 0 852.756 65.274 Q 853.051 66.215 854.074 66.495 A 3.413 3.413 0 0 0 854.736 66.602 L 858.936 66.895 L 858.936 70.801 L 836.328 70.801 L 836.328 66.895 L 841.211 66.602 A 3.151 3.151 0 0 0 842.074 66.431 Q 843.03 66.082 843.247 65.061 A 3.16 3.16 0 0 0 843.311 64.405 L 843.311 29.688 L 836.328 29.688 L 836.328 26.417 L 848.535 22.608 L 852.637 22.608 L 852.637 27.589 Q 856.836 25.196 861.255 23.292 A 27.859 27.859 0 0 1 864.435 22.131 Q 866.974 21.387 869.141 21.387 Q 875.684 21.387 879.102 25.465 Q 881.985 28.905 882.436 34.622 A 27.953 27.953 0 0 1 882.52 36.817 L 882.52 64.405 A 2.301 2.301 0 0 0 882.628 65.127 A 1.911 1.911 0 0 0 883.13 65.919 A 2.485 2.485 0 0 0 884.619 66.602 L 889.014 66.895 Z M 649.561 24.415 L 649.561 29.298 L 639.6 29.298 A 20.87 20.87 0 0 1 641.3 32.713 A 23.464 23.464 0 0 1 641.504 33.253 A 12.367 12.367 0 0 1 642.09 35.584 Q 642.285 36.841 642.285 38.282 A 15.12 15.12 0 0 1 641.646 42.76 A 12.669 12.669 0 0 1 639.551 46.802 A 17.303 17.303 0 0 1 633.455 51.737 A 20.829 20.829 0 0 1 632.349 52.247 A 24.129 24.129 0 0 1 623.79 54.128 A 28.012 28.012 0 0 1 622.656 54.151 L 621.68 54.151 A 9.808 9.808 0 0 1 620.703 54.102 Q 620.068 55.128 619.849 56.299 A 13.21 13.21 0 0 0 619.671 57.571 A 10.531 10.531 0 0 0 619.629 58.497 A 14.675 14.675 0 0 0 619.643 59.151 Q 619.657 59.463 619.685 59.732 A 6.816 6.816 0 0 0 619.727 60.059 Q 619.824 60.694 619.873 60.792 L 621.289 60.938 Q 624.691 61.269 628.894 61.874 A 231.521 231.521 0 0 1 629.175 61.915 A 45.714 45.714 0 0 1 637.622 63.965 A 20.127 20.127 0 0 1 641.339 65.674 A 15.83 15.83 0 0 1 644.336 67.969 A 8.658 8.658 0 0 1 646.846 73.026 A 12.109 12.109 0 0 1 646.973 74.805 A 13.3 13.3 0 0 1 645.182 81.399 A 18.125 18.125 0 0 1 643.506 83.863 A 23.586 23.586 0 0 1 638.072 88.758 A 30.664 30.664 0 0 1 634.155 90.943 A 29.292 29.292 0 0 1 624.547 93.529 A 35.83 35.83 0 0 1 620.996 93.702 A 31.482 31.482 0 0 1 615.571 93.264 Q 612.687 92.759 610.377 91.671 A 15.305 15.305 0 0 1 607.129 89.625 A 14.171 14.171 0 0 1 603.846 85.833 A 12.396 12.396 0 0 1 602.197 79.493 Q 602.197 75.147 604.785 71.754 A 10.477 10.477 0 0 1 608.724 68.638 Q 610.228 67.927 612.091 67.523 A 20.186 20.186 0 0 1 612.793 67.383 A 506.581 506.581 0 0 0 612.543 66.657 Q 612.195 65.65 612.012 65.137 Q 611.768 64.454 611.768 62.794 Q 611.768 61.174 612.59 59.27 A 14.641 14.641 0 0 1 612.964 58.472 Q 613.894 56.631 615.694 54.599 A 31.476 31.476 0 0 1 616.797 53.419 A 16.799 16.799 0 0 1 608.339 48.608 A 20.297 20.297 0 0 1 608.105 48.365 A 13.455 13.455 0 0 1 604.504 40.398 A 18.114 18.114 0 0 1 604.395 38.38 A 17.941 17.941 0 0 1 605.24 32.741 A 14.559 14.559 0 0 1 609.937 25.953 Q 615.343 21.499 624.025 21.39 A 34.868 34.868 0 0 1 624.463 21.387 A 21.312 21.312 0 0 1 628.92 21.839 A 18.5 18.5 0 0 1 631.079 22.437 Q 634.131 23.487 636.084 24.415 L 649.561 24.415 Z M 25.684 45.704 L 25.391 45.704 Q 23.438 45.704 21.069 45.533 Q 19.046 45.387 18.466 45.33 A 6.254 6.254 0 0 1 18.311 45.313 L 18.311 63.917 A 2.173 2.173 0 0 0 18.573 64.939 A 2.925 2.925 0 0 0 18.823 65.333 Q 19.324 66.001 20.362 66.109 A 3.61 3.61 0 0 0 20.41 66.114 L 27.002 66.505 L 27.002 70.801 L 0.732 70.801 L 0.732 66.505 L 6.006 66.114 A 2.976 2.976 0 0 0 6.712 65.968 A 2.038 2.038 0 0 0 7.642 65.333 A 2.761 2.761 0 0 0 7.995 64.791 A 1.977 1.977 0 0 0 8.203 63.917 L 8.203 10.596 A 2.042 2.042 0 0 0 7.985 9.693 A 2.949 2.949 0 0 0 7.642 9.156 A 1.932 1.932 0 0 0 6.54 8.472 A 2.86 2.86 0 0 0 6.006 8.399 L 0 8.008 L 0 3.712 L 23.926 3.712 A 70.325 70.325 0 0 1 31.302 4.071 Q 39.974 4.989 44.8 8.253 A 14.265 14.265 0 0 1 50.406 15.952 Q 51.219 18.465 51.435 21.562 A 33.269 33.269 0 0 1 51.514 23.878 A 25.51 25.51 0 0 1 50.963 29.319 A 17.94 17.94 0 0 1 48.047 36.036 Q 44.58 40.87 38.721 43.287 A 32.065 32.065 0 0 1 29.723 45.502 A 39.493 39.493 0 0 1 25.684 45.704 Z M 1078.516 69.483 L 1078.516 56.202 L 1083.594 56.202 L 1084.814 64.698 Q 1086.115 65.537 1087.939 66.322 A 32.526 32.526 0 0 0 1088.55 66.578 A 11.92 11.92 0 0 0 1091.253 67.305 A 16.26 16.26 0 0 0 1093.701 67.481 Q 1097.196 67.481 1099.398 65.899 A 7.195 7.195 0 0 0 1100.342 65.089 A 8.794 8.794 0 0 0 1101.881 63.007 A 7.016 7.016 0 0 0 1102.686 59.717 A 8.761 8.761 0 0 0 1102.351 57.226 A 6.427 6.427 0 0 0 1099.854 53.736 A 31.779 31.779 0 0 0 1097.85 52.424 Q 1095.552 51.031 1092.269 49.446 A 106.668 106.668 0 0 0 1091.797 49.219 L 1090.479 48.585 A 46.557 46.557 0 0 1 1087.022 46.779 Q 1084.011 45.032 1082.104 43.189 A 9.403 9.403 0 0 1 1079.257 37.119 A 12.869 12.869 0 0 1 1079.199 35.889 A 15.382 15.382 0 0 1 1079.914 31.088 A 12.467 12.467 0 0 1 1083.887 25.294 A 15.382 15.382 0 0 1 1089.15 22.49 Q 1092.625 21.387 1097.217 21.387 Q 1101.465 21.387 1104.824 22.14 A 25.219 25.219 0 0 1 1105.054 22.193 Q 1108.496 22.999 1110.01 23.682 L 1110.01 35.499 L 1104.785 35.499 L 1104.004 28.516 Q 1102.941 27.695 1100.873 26.969 A 22.852 22.852 0 0 0 1100.83 26.954 A 13.388 13.388 0 0 0 1096.405 26.221 A 14.958 14.958 0 0 0 1096.387 26.221 A 14.237 14.237 0 0 0 1094.136 26.387 Q 1092.957 26.576 1092.018 26.982 A 5.964 5.964 0 0 0 1090.283 28.101 A 6.253 6.253 0 0 0 1088.286 32.637 A 8.363 8.363 0 0 0 1088.281 32.911 A 7.556 7.556 0 0 0 1088.673 35.397 A 6.318 6.318 0 0 0 1090.698 38.257 Q 1092.533 39.759 1096.632 41.78 A 97.923 97.923 0 0 0 1099.463 43.116 Q 1104.228 45.298 1107.47 47.948 A 25.659 25.659 0 0 1 1108.081 48.463 A 9.705 9.705 0 0 1 1111.45 55.474 A 13.369 13.369 0 0 1 1111.475 56.299 A 17.171 17.171 0 0 1 1110.76 61.38 A 13.283 13.283 0 0 1 1106.396 67.847 A 17.106 17.106 0 0 1 1100.244 71.011 Q 1096.781 72.022 1092.383 72.022 A 38.712 38.712 0 0 1 1087.182 71.686 A 31.478 31.478 0 0 1 1083.911 71.07 Q 1080.094 70.134 1078.567 69.504 A 8.969 8.969 0 0 1 1078.516 69.483 Z M 489.551 66.895 L 489.551 70.801 L 474.756 70.801 L 473.438 64.893 L 471.948 65.967 A 31.273 31.273 0 0 1 470.812 66.746 Q 469.62 67.528 468.018 68.458 A 31.998 31.998 0 0 1 464.418 70.243 A 37.718 37.718 0 0 1 462.622 70.948 A 17.517 17.517 0 0 1 458.021 71.971 A 16.069 16.069 0 0 1 456.738 72.022 A 12.835 12.835 0 0 1 447.534 68.409 A 11.916 11.916 0 0 1 444.084 62 A 17.499 17.499 0 0 1 443.75 58.497 Q 443.75 55.714 444.751 53.321 A 8.34 8.34 0 0 1 446.006 51.274 Q 447.063 49.98 448.755 48.756 Q 451.624 46.68 457.167 44.693 A 72.419 72.419 0 0 1 457.69 44.507 Q 463.558 42.455 473.224 40.331 A 264.505 264.505 0 0 1 473.438 40.284 L 473.438 35.987 Q 473.438 26.124 464.111 26.124 A 23.157 23.157 0 0 0 462.126 26.204 Q 461.144 26.289 460.291 26.463 A 12.473 12.473 0 0 0 459.644 26.612 A 60.035 60.035 0 0 0 458.775 26.844 Q 457.607 27.166 457.056 27.383 A 5.275 5.275 0 0 0 457.031 27.393 L 457.031 36.085 L 449.756 36.085 A 6.403 6.403 0 0 1 447.748 35.775 A 5.954 5.954 0 0 1 447.217 35.572 Q 446.21 35.132 446.068 33.701 A 5.036 5.036 0 0 1 446.045 33.204 A 8.73 8.73 0 0 1 446.826 29.475 A 8.628 8.628 0 0 1 449.17 26.49 A 17.556 17.556 0 0 1 453.219 23.984 A 23.997 23.997 0 0 1 457.104 22.632 A 38.716 38.716 0 0 1 466.846 21.387 A 32.176 32.176 0 0 1 470.45 21.576 Q 474.115 21.99 476.465 23.316 A 11.306 11.306 0 0 1 479.518 25.779 A 10.191 10.191 0 0 1 481.25 28.638 A 18.528 18.528 0 0 1 482.392 33.004 A 24.28 24.28 0 0 1 482.617 36.378 L 482.617 64.405 A 2.301 2.301 0 0 0 482.726 65.127 A 1.911 1.911 0 0 0 483.228 65.919 A 2.485 2.485 0 0 0 484.717 66.602 L 489.551 66.895 Z M 597.119 66.895 L 597.119 70.801 L 582.324 70.801 L 581.006 64.893 L 579.517 65.967 A 31.273 31.273 0 0 1 578.38 66.746 Q 577.188 67.528 575.586 68.458 A 31.998 31.998 0 0 1 571.987 70.243 A 37.718 37.718 0 0 1 570.19 70.948 A 17.517 17.517 0 0 1 565.59 71.971 A 16.069 16.069 0 0 1 564.307 72.022 A 12.835 12.835 0 0 1 555.103 68.409 A 11.916 11.916 0 0 1 551.652 62 A 17.499 17.499 0 0 1 551.318 58.497 Q 551.318 55.714 552.319 53.321 A 8.34 8.34 0 0 1 553.575 51.274 Q 554.631 49.98 556.323 48.756 Q 559.192 46.68 564.735 44.693 A 72.419 72.419 0 0 1 565.259 44.507 Q 571.127 42.455 580.792 40.331 A 264.505 264.505 0 0 1 581.006 40.284 L 581.006 35.987 Q 581.006 26.124 571.68 26.124 A 23.157 23.157 0 0 0 569.694 26.204 Q 568.712 26.289 567.86 26.463 A 12.473 12.473 0 0 0 567.212 26.612 A 60.035 60.035 0 0 0 566.344 26.844 Q 565.175 27.166 564.624 27.383 A 5.275 5.275 0 0 0 564.6 27.393 L 564.6 36.085 L 557.324 36.085 A 6.403 6.403 0 0 1 555.317 35.775 A 5.954 5.954 0 0 1 554.785 35.572 Q 553.779 35.132 553.637 33.701 A 5.036 5.036 0 0 1 553.613 33.204 A 8.73 8.73 0 0 1 554.395 29.475 A 8.628 8.628 0 0 1 556.738 26.49 A 17.556 17.556 0 0 1 560.787 23.984 A 23.997 23.997 0 0 1 564.673 22.632 A 38.716 38.716 0 0 1 574.414 21.387 A 32.176 32.176 0 0 1 578.018 21.576 Q 581.683 21.99 584.033 23.316 A 11.306 11.306 0 0 1 587.086 25.779 A 10.191 10.191 0 0 1 588.818 28.638 A 18.528 18.528 0 0 1 589.96 33.004 A 24.28 24.28 0 0 1 590.186 36.378 L 590.186 64.405 A 2.301 2.301 0 0 0 590.294 65.127 A 1.911 1.911 0 0 0 590.796 65.919 A 2.485 2.485 0 0 0 592.285 66.602 L 597.119 66.895 Z M 270.361 61.378 L 270.361 67.09 A 54.334 54.334 0 0 1 266.301 69.046 A 69.472 69.472 0 0 1 262.769 70.46 A 25.247 25.247 0 0 1 256.331 71.892 A 30.766 30.766 0 0 1 253.467 72.022 A 25.105 25.105 0 0 1 247.132 71.255 A 20.244 20.244 0 0 1 241.333 68.751 A 21.877 21.877 0 0 1 233.374 59.84 A 26.783 26.783 0 0 1 230.795 50.991 A 33.627 33.627 0 0 1 230.566 47.022 A 34.939 34.939 0 0 1 231.113 40.67 Q 231.805 36.927 233.374 33.887 A 20.929 20.929 0 0 1 233.911 32.911 A 22.932 22.932 0 0 1 239.338 26.531 A 21.46 21.46 0 0 1 242.749 24.293 A 25.044 25.044 0 0 1 254.639 21.387 A 28.096 28.096 0 0 1 259.554 21.794 Q 262.363 22.294 264.663 23.405 A 16.515 16.515 0 0 1 265.698 23.951 A 9.815 9.815 0 0 1 268.242 25.987 Q 270.166 28.193 270.166 31.397 A 7.438 7.438 0 0 1 269.969 33.163 A 4.771 4.771 0 0 1 268.335 35.816 A 6.585 6.585 0 0 1 266.03 37.055 A 6.247 6.247 0 0 1 264.258 37.305 A 8.292 8.292 0 0 1 262.889 37.198 Q 262.089 37.064 261.42 36.763 A 5.217 5.217 0 0 1 261.377 36.744 Q 260.156 36.182 259.229 35.596 L 259.229 26.905 Q 257.522 25.925 256.031 25.673 A 6.022 6.022 0 0 0 255.029 25.587 A 12.616 12.616 0 0 0 250.719 26.302 A 11.289 11.289 0 0 0 247.388 28.199 A 15.145 15.145 0 0 0 243.831 32.458 A 19.957 19.957 0 0 0 242.48 35.352 A 26.101 26.101 0 0 0 241.076 41.027 A 34.538 34.538 0 0 0 240.771 45.704 A 28.565 28.565 0 0 0 241.426 51.92 A 24.216 24.216 0 0 0 242.627 55.787 A 17.252 17.252 0 0 0 245.568 60.653 A 15.605 15.605 0 0 0 248.169 63.038 A 13.74 13.74 0 0 0 253.775 65.406 A 18.99 18.99 0 0 0 257.324 65.723 A 19.759 19.759 0 0 0 263.965 64.6 A 28.059 28.059 0 0 0 267.951 62.815 A 34.417 34.417 0 0 0 270.361 61.378 Z M 223.73 59.717 L 223.73 65.821 A 51.271 51.271 0 0 1 214.673 70.215 Q 209.814 72.022 204.736 72.022 A 24.576 24.576 0 0 1 193.384 69.312 A 20.717 20.717 0 0 1 185.446 62.095 A 25.166 25.166 0 0 1 184.814 61.085 A 22.051 22.051 0 0 1 182.361 54.859 Q 181.709 52.096 181.577 48.884 A 40.482 40.482 0 0 1 181.543 47.217 A 34.018 34.018 0 0 1 182.208 40.333 A 25.786 25.786 0 0 1 184.57 33.594 A 22.725 22.725 0 0 1 190.254 26.469 A 21.861 21.861 0 0 1 192.92 24.586 A 22.492 22.492 0 0 1 202.944 21.465 A 27.439 27.439 0 0 1 205.029 21.387 Q 214.355 21.387 219.043 27.173 A 20.602 20.602 0 0 1 223.226 36.37 A 28.896 28.896 0 0 1 223.73 41.895 L 223.73 43.189 A 11.686 11.686 0 0 1 223.7 44.057 A 9.268 9.268 0 0 1 223.633 44.678 L 191.211 44.678 A 36.367 36.367 0 0 0 192.017 52.271 A 21.77 21.77 0 0 0 194.051 57.953 A 20.11 20.11 0 0 0 194.727 59.132 A 14.33 14.33 0 0 0 199.854 64.063 Q 203.076 65.919 207.91 65.919 A 18.954 18.954 0 0 0 216.157 64.002 A 21.827 21.827 0 0 0 216.284 63.941 A 66.478 66.478 0 0 0 221.443 61.163 A 56.17 56.17 0 0 0 223.73 59.717 Z M 696.875 59.717 L 696.875 65.821 A 51.271 51.271 0 0 1 687.817 70.215 Q 682.959 72.022 677.881 72.022 A 24.576 24.576 0 0 1 666.528 69.312 A 20.717 20.717 0 0 1 658.59 62.095 A 25.166 25.166 0 0 1 657.959 61.085 A 22.051 22.051 0 0 1 655.505 54.859 Q 654.854 52.096 654.721 48.884 A 40.482 40.482 0 0 1 654.688 47.217 A 34.018 34.018 0 0 1 655.353 40.333 A 25.786 25.786 0 0 1 657.715 33.594 A 22.725 22.725 0 0 1 663.399 26.469 A 21.861 21.861 0 0 1 666.064 24.586 A 22.492 22.492 0 0 1 676.089 21.465 A 27.439 27.439 0 0 1 678.174 21.387 Q 687.5 21.387 692.188 27.173 A 20.602 20.602 0 0 1 696.37 36.37 A 28.896 28.896 0 0 1 696.875 41.895 L 696.875 43.189 A 11.686 11.686 0 0 1 696.844 44.057 A 9.268 9.268 0 0 1 696.777 44.678 L 664.355 44.678 A 36.367 36.367 0 0 0 665.161 52.271 A 21.77 21.77 0 0 0 667.196 57.953 A 20.11 20.11 0 0 0 667.871 59.132 A 14.33 14.33 0 0 0 672.998 64.063 Q 676.221 65.919 681.055 65.919 A 18.954 18.954 0 0 0 689.301 64.002 A 21.827 21.827 0 0 0 689.429 63.941 A 66.478 66.478 0 0 0 694.588 61.163 A 56.17 56.17 0 0 0 696.875 59.717 Z M 830.908 59.717 L 830.908 65.821 A 51.271 51.271 0 0 1 821.851 70.215 Q 816.992 72.022 811.914 72.022 A 24.576 24.576 0 0 1 800.562 69.312 A 20.717 20.717 0 0 1 792.623 62.095 A 25.166 25.166 0 0 1 791.992 61.085 A 22.051 22.051 0 0 1 789.539 54.859 Q 788.887 52.096 788.754 48.884 A 40.482 40.482 0 0 1 788.721 47.217 A 34.018 34.018 0 0 1 789.386 40.333 A 25.786 25.786 0 0 1 791.748 33.594 A 22.725 22.725 0 0 1 797.432 26.469 A 21.861 21.861 0 0 1 800.098 24.586 A 22.492 22.492 0 0 1 810.122 21.465 A 27.439 27.439 0 0 1 812.207 21.387 Q 821.533 21.387 826.221 27.173 A 20.602 20.602 0 0 1 830.404 36.37 A 28.896 28.896 0 0 1 830.908 41.895 L 830.908 43.189 A 11.686 11.686 0 0 1 830.877 44.057 A 9.268 9.268 0 0 1 830.811 44.678 L 798.389 44.678 A 36.367 36.367 0 0 0 799.194 52.271 A 21.77 21.77 0 0 0 801.229 57.953 A 20.11 20.11 0 0 0 801.904 59.132 A 14.33 14.33 0 0 0 807.031 64.063 Q 810.254 65.919 815.088 65.919 A 18.954 18.954 0 0 0 823.334 64.002 A 21.827 21.827 0 0 0 823.462 63.941 A 66.478 66.478 0 0 0 828.621 61.163 A 56.17 56.17 0 0 0 830.908 59.717 Z M 1194.482 59.717 L 1194.482 65.821 A 51.271 51.271 0 0 1 1185.425 70.215 Q 1180.566 72.022 1175.488 72.022 A 24.576 24.576 0 0 1 1164.136 69.312 A 20.717 20.717 0 0 1 1156.198 62.095 A 25.166 25.166 0 0 1 1155.566 61.085 A 22.051 22.051 0 0 1 1153.113 54.859 Q 1152.461 52.096 1152.329 48.884 A 40.482 40.482 0 0 1 1152.295 47.217 A 34.018 34.018 0 0 1 1152.96 40.333 A 25.786 25.786 0 0 1 1155.322 33.594 A 22.725 22.725 0 0 1 1161.006 26.469 A 21.861 21.861 0 0 1 1163.672 24.586 A 22.492 22.492 0 0 1 1173.696 21.465 A 27.439 27.439 0 0 1 1175.781 21.387 Q 1185.107 21.387 1189.795 27.173 A 20.602 20.602 0 0 1 1193.978 36.37 A 28.896 28.896 0 0 1 1194.482 41.895 L 1194.482 43.189 A 11.686 11.686 0 0 1 1194.452 44.057 A 9.268 9.268 0 0 1 1194.385 44.678 L 1161.963 44.678 A 36.367 36.367 0 0 0 1162.769 52.271 A 21.77 21.77 0 0 0 1164.803 57.953 A 20.11 20.11 0 0 0 1165.479 59.132 A 14.33 14.33 0 0 0 1170.605 64.063 Q 1173.828 65.919 1178.662 65.919 A 18.954 18.954 0 0 0 1186.909 64.002 A 21.827 21.827 0 0 0 1187.036 63.941 A 66.478 66.478 0 0 0 1192.195 61.163 A 56.17 56.17 0 0 0 1194.482 59.717 Z M 93.506 22.901 L 93.506 32.813 L 89.6 32.813 A 9.08 9.08 0 0 0 87.378 30.884 A 5.184 5.184 0 0 0 85.643 30.212 A 7.171 7.171 0 0 0 84.229 30.079 Q 81.934 30.079 79.527 31.606 A 13.495 13.495 0 0 0 79.321 31.739 Q 77.015 33.261 74.648 35.81 A 38.204 38.204 0 0 0 74.219 36.28 L 74.219 64.405 A 3.044 3.044 0 0 0 74.33 65.266 Q 74.703 66.527 76.318 66.602 L 82.91 66.895 L 82.91 70.801 L 57.91 70.801 L 57.91 66.993 L 62.842 66.602 A 2.485 2.485 0 0 0 64.331 65.919 A 1.96 1.96 0 0 0 64.934 64.604 A 2.659 2.659 0 0 0 64.941 64.405 L 64.941 29.688 L 57.715 29.688 L 57.715 26.417 L 70.117 22.608 L 74.219 22.608 L 74.219 31.495 A 690.213 690.213 0 0 1 74.997 30.64 Q 76.193 29.329 77.775 27.606 A 1867.425 1867.425 0 0 1 77.881 27.491 A 33.715 33.715 0 0 1 82.568 23.243 Q 84.557 21.761 86.452 21.463 A 6.1 6.1 0 0 1 87.402 21.387 Q 88.965 21.387 90.771 21.876 A 20.505 20.505 0 0 1 91.791 22.178 Q 92.861 22.528 93.506 22.901 Z M 169.141 21.387 L 169.141 64.405 A 78.109 78.109 0 0 1 169.073 67.554 A 106.869 106.869 0 0 1 168.872 71.046 Q 168.604 74.708 167.749 78.223 A 22.199 22.199 0 0 1 166.438 82.094 A 18.362 18.362 0 0 1 165.186 84.424 A 21.602 21.602 0 0 1 161.7 88.653 A 17.73 17.73 0 0 1 157.764 91.431 Q 153.369 93.702 148.633 93.702 A 11.894 11.894 0 0 1 145.926 93.407 A 9.301 9.301 0 0 1 143.286 92.359 A 4.489 4.489 0 0 1 141.619 90.709 Q 141.138 89.861 141.041 88.761 A 6.517 6.517 0 0 1 141.016 88.184 Q 141.016 85.645 142.407 84.278 A 9 9 0 0 1 143.648 83.25 A 6.518 6.518 0 0 1 145.312 82.423 L 155.029 89.112 Q 157.813 87.549 158.813 83.106 Q 159.814 78.663 159.814 72.901 L 159.814 28.516 L 152.734 28.516 L 152.734 25.196 L 165.039 21.387 L 169.141 21.387 Z M 307.031 64.698 L 307.031 68.702 L 305.151 69.532 A 23.097 23.097 0 0 1 303.72 70.103 Q 302.971 70.375 302.096 70.647 A 54.228 54.228 0 0 1 300.22 71.192 A 23.65 23.65 0 0 1 295.972 71.924 A 29.082 29.082 0 0 1 293.555 72.022 Q 290.151 72.022 287.868 71.044 A 7.522 7.522 0 0 1 285.376 69.361 Q 282.813 66.7 282.813 60.792 L 282.813 27.589 L 276.416 27.589 L 276.416 24.317 L 283.252 21.094 L 287.744 10.499 L 292.139 10.499 L 292.139 22.608 L 306.25 22.608 L 306.25 27.589 L 292.139 27.589 L 292.139 55.518 A 28.279 28.279 0 0 0 292.264 58.279 Q 292.639 62.092 294.141 63.941 A 6.395 6.395 0 0 0 297.63 66.116 Q 298.699 66.389 299.975 66.406 A 12.797 12.797 0 0 0 300.146 66.407 Q 302.475 66.407 304.203 65.867 A 8.655 8.655 0 0 0 305.054 65.552 L 307.031 64.698 Z M 924.316 64.698 L 924.316 68.702 L 922.437 69.532 A 23.097 23.097 0 0 1 921.006 70.103 Q 920.257 70.375 919.381 70.647 A 54.228 54.228 0 0 1 917.505 71.192 A 23.65 23.65 0 0 1 913.258 71.924 A 29.082 29.082 0 0 1 910.84 72.022 Q 907.436 72.022 905.153 71.044 A 7.522 7.522 0 0 1 902.661 69.361 Q 900.098 66.7 900.098 60.792 L 900.098 27.589 L 893.701 27.589 L 893.701 24.317 L 900.537 21.094 L 905.029 10.499 L 909.424 10.499 L 909.424 22.608 L 923.535 22.608 L 923.535 27.589 L 909.424 27.589 L 909.424 55.518 A 28.279 28.279 0 0 0 909.549 58.279 Q 909.924 62.092 911.426 63.941 A 6.395 6.395 0 0 0 914.916 66.116 Q 915.984 66.389 917.261 66.406 A 12.797 12.797 0 0 0 917.432 66.407 Q 919.761 66.407 921.488 65.867 A 8.655 8.655 0 0 0 922.339 65.552 L 924.316 64.698 Z M 1148.193 64.698 L 1148.193 68.702 L 1146.313 69.532 A 23.097 23.097 0 0 1 1144.883 70.103 Q 1144.134 70.375 1143.258 70.647 A 54.228 54.228 0 0 1 1141.382 71.192 A 23.65 23.65 0 0 1 1137.135 71.924 A 29.082 29.082 0 0 1 1134.717 72.022 Q 1131.313 72.022 1129.03 71.044 A 7.522 7.522 0 0 1 1126.538 69.361 Q 1123.975 66.7 1123.975 60.792 L 1123.975 27.589 L 1117.578 27.589 L 1117.578 24.317 L 1124.414 21.094 L 1128.906 10.499 L 1133.301 10.499 L 1133.301 22.608 L 1147.412 22.608 L 1147.412 27.589 L 1133.301 27.589 L 1133.301 55.518 A 28.279 28.279 0 0 0 1133.426 58.279 Q 1133.801 62.092 1135.303 63.941 A 6.395 6.395 0 0 0 1138.792 66.116 Q 1139.861 66.389 1141.137 66.406 A 12.797 12.797 0 0 0 1141.309 66.407 Q 1143.637 66.407 1145.365 65.867 A 8.655 8.655 0 0 0 1146.216 65.552 L 1148.193 64.698 Z M 144.42 54.908 A 29.526 29.526 0 0 0 145.508 46.778 Q 145.508 39.747 142.725 33.985 A 22.251 22.251 0 0 0 134.668 24.805 Q 129.395 21.387 121.924 21.387 A 28.65 28.65 0 0 0 117.509 21.716 A 21.976 21.976 0 0 0 109.155 24.757 A 22.487 22.487 0 0 0 100.854 33.887 Q 97.949 39.649 97.949 46.778 A 33.249 33.249 0 0 0 98.129 50.275 A 26.973 26.973 0 0 0 100.83 59.669 A 22.22 22.22 0 0 0 109.033 68.702 A 21.127 21.127 0 0 0 115.239 71.293 A 26.828 26.828 0 0 0 121.631 72.022 A 28.453 28.453 0 0 0 126.015 71.695 A 21.758 21.758 0 0 0 134.302 68.677 A 22.64 22.64 0 0 0 142.578 59.595 A 25.888 25.888 0 0 0 144.42 54.908 Z M 135.107 46.68 Q 135.107 41.212 133.667 36.475 A 20.916 20.916 0 0 0 131.988 32.44 A 15.89 15.89 0 0 0 129.272 28.809 A 9.995 9.995 0 0 0 122.519 25.897 A 13.246 13.246 0 0 0 121.826 25.88 A 11.987 11.987 0 0 0 118.212 26.401 A 9.718 9.718 0 0 0 114.233 28.809 A 16.048 16.048 0 0 0 111.142 33.177 A 21.342 21.342 0 0 0 109.863 36.475 A 34.126 34.126 0 0 0 108.536 43.992 A 40.229 40.229 0 0 0 108.447 46.68 A 36.211 36.211 0 0 0 109.224 54.285 A 32.163 32.163 0 0 0 109.888 56.861 A 21.043 21.043 0 0 0 111.537 60.861 A 15.856 15.856 0 0 0 114.282 64.551 A 9.995 9.995 0 0 0 121.036 67.463 A 13.246 13.246 0 0 0 121.729 67.481 A 11.763 11.763 0 0 0 125.371 66.94 A 9.732 9.732 0 0 0 129.272 64.551 A 16.213 16.213 0 0 0 132.374 60.184 A 21.596 21.596 0 0 0 133.667 56.885 A 33.68 33.68 0 0 0 135.028 49.204 A 39.667 39.667 0 0 0 135.107 46.68 Z M 18.311 8.692 L 18.311 40.186 Q 18.518 40.186 19.98 40.38 A 197.529 197.529 0 0 1 20.532 40.455 A 35.195 35.195 0 0 0 21.936 40.618 Q 22.627 40.684 23.231 40.709 A 17.117 17.117 0 0 0 23.926 40.723 L 24.219 40.723 A 24.076 24.076 0 0 0 29.334 40.211 Q 32.721 39.475 35.272 37.68 A 14.401 14.401 0 0 0 36.548 36.671 Q 40.353 33.293 40.987 26.76 A 28.362 28.362 0 0 0 41.113 24.024 A 20.887 20.887 0 0 0 40.632 19.4 Q 39.712 15.347 37.036 12.672 Q 33.117 8.752 24.121 8.6 A 43.453 43.453 0 0 0 23.389 8.594 A 92.912 92.912 0 0 0 22.295 8.601 Q 21.326 8.613 20.166 8.643 L 18.311 8.692 Z M 638.379 77.491 A 7.191 7.191 0 0 0 638.098 75.428 A 5.423 5.423 0 0 0 636.206 72.657 Q 634.033 70.948 630.811 70.118 A 46.941 46.941 0 0 0 624.316 68.922 A 97.018 97.018 0 0 1 622.007 68.637 Q 621.105 68.514 620.303 68.383 A 47.424 47.424 0 0 1 618.799 68.116 A 17.328 17.328 0 0 0 616.347 69.202 Q 613.942 70.518 612.817 72.364 A 12.844 12.844 0 0 0 611.789 74.425 Q 611.305 75.683 611.207 76.883 A 7.446 7.446 0 0 0 611.182 77.491 A 9.45 9.45 0 0 0 611.563 80.083 Q 611.91 81.302 612.573 82.593 A 11.503 11.503 0 0 0 615.356 86.073 A 14.595 14.595 0 0 0 616.87 87.208 A 11.064 11.064 0 0 0 620.405 88.694 Q 621.832 89.034 623.49 89.097 A 20.234 20.234 0 0 0 624.268 89.112 A 19.858 19.858 0 0 0 627.623 88.844 Q 630.225 88.398 632.178 87.208 A 14.968 14.968 0 0 0 634.759 85.245 A 11.596 11.596 0 0 0 636.841 82.593 A 13.583 13.583 0 0 0 637.808 80.525 Q 638.379 78.949 638.379 77.491 Z M 632.764 37.696 A 16.625 16.625 0 0 0 631.999 32.618 A 15.573 15.573 0 0 0 631.689 31.739 Q 630.615 28.956 628.564 27.222 A 7.285 7.285 0 0 0 624.632 25.555 A 9.661 9.661 0 0 0 623.486 25.489 A 8.805 8.805 0 0 0 619.672 26.301 A 8.801 8.801 0 0 0 616.626 28.736 A 10.864 10.864 0 0 0 614.651 32.553 Q 613.965 34.843 613.965 37.794 A 17.686 17.686 0 0 0 614.456 42.056 A 13.741 13.741 0 0 0 616.357 46.412 A 7.709 7.709 0 0 0 621.927 49.895 A 11.059 11.059 0 0 0 623.486 50.001 A 8.858 8.858 0 0 0 626.618 49.471 Q 628.788 48.657 630.231 46.593 A 9.846 9.846 0 0 0 630.371 46.387 Q 632.764 42.774 632.764 37.696 Z M 473.438 61.378 L 473.438 44.092 Q 466.849 45.716 462.897 47.363 A 34.678 34.678 0 0 0 462.72 47.437 Q 458.74 49.122 456.787 50.806 Q 455.355 52.042 454.645 53.303 A 5.817 5.817 0 0 0 454.224 54.224 A 10.728 10.728 0 0 0 453.613 57.813 A 9.164 9.164 0 0 0 455.41 63.256 A 11.364 11.364 0 0 0 455.591 63.502 A 6.381 6.381 0 0 0 460.266 66.073 A 8.971 8.971 0 0 0 461.133 66.114 A 12.492 12.492 0 0 0 463.955 65.779 A 15.193 15.193 0 0 0 465.283 65.406 A 28.597 28.597 0 0 0 468.461 64.151 A 25.386 25.386 0 0 0 469.287 63.746 A 71.548 71.548 0 0 0 470.171 63.285 Q 471.346 62.661 472.174 62.157 A 23.085 23.085 0 0 0 472.29 62.086 L 473.438 61.378 Z M 581.006 61.378 L 581.006 44.092 Q 574.417 45.716 570.466 47.363 A 34.678 34.678 0 0 0 570.288 47.437 Q 566.309 49.122 564.355 50.806 Q 562.923 52.042 562.213 53.303 A 5.817 5.817 0 0 0 561.792 54.224 A 10.728 10.728 0 0 0 561.182 57.813 A 9.164 9.164 0 0 0 562.978 63.256 A 11.364 11.364 0 0 0 563.159 63.502 A 6.381 6.381 0 0 0 567.835 66.073 A 8.971 8.971 0 0 0 568.701 66.114 A 12.492 12.492 0 0 0 571.523 65.779 A 15.193 15.193 0 0 0 572.852 65.406 A 28.597 28.597 0 0 0 576.03 64.151 A 25.386 25.386 0 0 0 576.855 63.746 A 71.548 71.548 0 0 0 577.739 63.285 Q 578.914 62.661 579.742 62.157 A 23.085 23.085 0 0 0 579.858 62.086 L 581.006 61.378 Z M 191.748 40.186 L 213.721 40.186 L 213.721 37.989 A 17.028 17.028 0 0 0 213.299 34.106 A 12.578 12.578 0 0 0 211.353 29.688 A 7.654 7.654 0 0 0 206.398 26.543 A 12.11 12.11 0 0 0 204.004 26.319 A 11.008 11.008 0 0 0 195.934 29.69 A 13.983 13.983 0 0 0 195.605 30.03 A 13.549 13.549 0 0 0 192.599 35.317 Q 191.91 37.517 191.748 40.186 Z M 664.893 40.186 L 686.865 40.186 L 686.865 37.989 A 17.028 17.028 0 0 0 686.444 34.106 A 12.578 12.578 0 0 0 684.497 29.688 A 7.654 7.654 0 0 0 679.543 26.543 A 12.11 12.11 0 0 0 677.148 26.319 A 11.008 11.008 0 0 0 669.078 29.69 A 13.983 13.983 0 0 0 668.75 30.03 A 13.549 13.549 0 0 0 665.743 35.317 Q 665.054 37.517 664.893 40.186 Z M 798.926 40.186 L 820.898 40.186 L 820.898 37.989 A 17.028 17.028 0 0 0 820.477 34.106 A 12.578 12.578 0 0 0 818.53 29.688 A 7.654 7.654 0 0 0 813.576 26.543 A 12.11 12.11 0 0 0 811.182 26.319 A 11.008 11.008 0 0 0 803.111 29.69 A 13.983 13.983 0 0 0 802.783 30.03 A 13.549 13.549 0 0 0 799.777 35.317 Q 799.088 37.517 798.926 40.186 Z M 1162.5 40.186 L 1184.473 40.186 L 1184.473 37.989 A 17.028 17.028 0 0 0 1184.051 34.106 A 12.578 12.578 0 0 0 1182.104 29.688 A 7.654 7.654 0 0 0 1177.15 26.543 A 12.11 12.11 0 0 0 1174.756 26.319 A 11.008 11.008 0 0 0 1166.686 29.69 A 13.983 13.983 0 0 0 1166.357 30.03 A 13.549 13.549 0 0 0 1163.351 35.317 Q 1162.662 37.517 1162.5 40.186 Z M 168.457 10.474 A 6.091 6.091 0 0 0 170.215 6.104 A 7.562 7.562 0 0 0 170.214 6.023 A 5.89 5.89 0 0 0 168.457 1.758 A 5.896 5.896 0 0 0 166.543 0.461 A 6.271 6.271 0 0 0 164.111 0.001 A 6.091 6.091 0 0 0 159.741 1.758 A 5.932 5.932 0 0 0 158.458 3.522 A 6.003 6.003 0 0 0 157.91 6.104 A 6.138 6.138 0 0 0 158.242 8.138 A 6.151 6.151 0 0 0 159.741 10.474 A 7.42 7.42 0 0 0 159.799 10.531 A 5.955 5.955 0 0 0 164.111 12.305 Q 166.699 12.305 168.457 10.474 Z" vector-effect="non-scaling-stroke"/></g></svg>